<svg width="146" height="338" viewBox="0 0 146 338" fill="none" xmlns="http://www.w3.org/2000/svg">
<path d="M90.5892 316.814C90.4775 315.788 90.4369 313.834 90.6805 311.99C90.6678 311.987 90.6975 308.94 90.6805 307.904C95.3603 306.075 97.984 305.989 102.663 307.904C102.704 308.562 102.78 311.482 102.993 312.1C103.46 313.455 104.181 315.359 105.064 317.014C106.627 319.954 110.231 325.475 111.438 326.651C112.636 327.817 114.575 330.658 112.758 331.465C112.119 331.744 111.794 331.475 111.794 331.475C112.037 332.402 111.621 333.379 111.043 333.648C110.576 333.867 109.987 333.808 109.987 333.808C109.936 334.525 109.084 335.881 107.277 335.392C107.277 335.392 106.82 336.967 105.419 337.037C104.952 337.067 104.496 337.047 104.069 336.877C103.673 336.718 103.237 336.279 102.76 335.183C102.76 335.183 103.115 336.588 101.339 337.266C99.5622 337.944 97.461 337.146 96.3749 334.914C95.2888 332.681 95.4106 332.273 94.5072 330.329C93.6038 328.386 94.02 323.332 93.3602 321.279C92.6903 319.226 90.7719 318.519 90.5892 316.814Z" stroke="white"/>
<path d="M90.6781 307.5C90.6414 305.243 90.5579 303.923 90.5579 303.923L90.5009 303.041C92.0816 303.99 93.1973 300.674 95.4303 300.514C98.1106 300.321 100.736 302.22 102.082 303.041C102.225 305.972 102.42 306.201 102.501 307.5C97.884 305.596 95.2954 305.682 90.6781 307.5Z" stroke="white"/>
<path d="M80.5009 228.5L80.6226 228.863M80.6226 228.863C81.0125 230.026 81.584 234.209 82.1891 240.001C82.5751 243.695 82.9749 248.044 83.3501 252.681C84.07 261.571 86.4426 276.227 88.1561 285.077C89.1701 290.348 89.8392 295.67 90.1941 301.033L90.3595 303.603M80.6226 228.863C92.5416 242.853 100.191 237.817 102.525 233.55C103.121 235.916 103.694 238.244 104.035 240.001C104.836 244.133 104.43 250.322 104.105 261.601C103.781 272.88 102.341 281.619 101.855 287.808C101.586 291.243 101.821 298.145 102.085 303.603C100.722 302.768 98.0637 300.837 95.3501 301.033C93.0894 301.196 91.9598 304.569 90.3595 303.603M90.3595 303.603L90.4172 304.5" stroke="white"/>
<path d="M80.688 229.08L80.5669 228.708C79.8059 226.323 79.1159 223.915 78.5009 221.487C82.5244 224.076 88.7918 222.722 88.7918 222.722C88.7918 222.722 95.3619 217.541 101.076 217.5C100.685 221.749 100.434 224.886 100.49 225.196C100.856 227.257 101.699 230.605 102.501 233.884C100.176 238.257 92.5584 243.42 80.688 229.08Z" stroke="white"/>
<path d="M75.0007 198.584C74.1487 186.02 74.7201 179.171 72.5009 178.847L82.2082 160.583L90.6096 145.057C96.2842 142.561 97.4716 139.941 100.195 137.5C101.404 143.135 102.622 140.565 103.167 146.332C103.649 151.386 104.088 164.556 104.323 169.631C104.686 177.487 104.557 185.337 103.336 193.081C102.841 196.216 101.471 209.451 100.68 218.04C95.0742 218.08 88.6282 223.154 88.6282 223.154C88.6282 223.154 82.4792 224.479 78.5317 221.944C77.2457 216.877 76.294 211.725 75.714 206.526C75.4465 204.118 75.1988 201.447 75.0007 198.584Z" stroke="white"/>
<path d="M101.157 93.918C101.179 93.9957 101.201 94.0733 101.224 94.1508M101.224 94.1508C103.4 101.616 106.361 108.555 106.701 111.34C112.993 112.024 115.865 110.668 119.501 104.31C119.17 102.392 118.811 100.042 118.406 97.1111C116.76 85.1272 119.941 87.0929 118.406 72.6244C118.03 69.0862 117.07 66.2603 115.76 63.9933C106.239 60.4011 98.9534 64.1253 96.5009 66.4363L97.1983 68.9824L101.318 84.0237C101.311 84.8832 101.305 85.6892 101.298 86.4443C101.268 90.1008 101.224 94.1508 101.224 94.1508Z" stroke="white"/>
<path d="M103.69 54.5C106.419 55.2958 109.73 56.6066 112.61 59.1143C114.059 60.3764 115.4 61.9417 116.501 63.8972C106.613 60.0701 99.0477 64.0378 96.5009 66.5C96.6251 63.6199 98.2367 57.1878 103.69 54.5Z" stroke="white"/>
<path d="M90.5009 145.5C85.8372 147.498 77.6465 149.73 72.9566 148.935H71.9698C67.2801 149.73 59.1647 147.498 54.5009 145.5L62.8695 160.564C65.4621 161.06 69.625 161.581 72.1186 161.49H72.9294C75.4229 161.581 79.5397 161.06 82.1324 160.564L90.5009 145.5Z" stroke="white"/>
<path d="M44.5009 138.262C45.4572 133.846 44.7558 137.085 46.8573 126.629C47.1804 125.022 47.5698 123.09 48.0417 120.757C48.7756 117.129 48.797 113.483 48.3693 109.982C56.0646 89.8033 67.9722 98.5474 72.964 105.442C82.1734 89.2988 94.4192 101.911 96.6323 109.982C96.2046 113.483 96.226 117.129 96.96 120.757C97.4318 123.09 97.8212 125.022 98.1444 126.629C100.246 137.085 99.5444 133.846 100.501 138.262C97.7437 140.697 96.5415 143.31 90.7964 145.799C86.0561 147.853 77.7309 150.148 72.964 149.33H71.961C67.1942 150.148 58.9456 147.853 54.2052 145.799C48.4601 143.31 47.258 140.697 44.5009 138.262Z" stroke="white"/>
<path d="M47.6194 68.5L43.5009 83.7055C43.5078 84.5744 43.5143 85.3891 43.5207 86.1525C45.2205 88.9769 48.1966 88.6743 49.4723 88.17L52.5009 69.5087L47.6194 68.5Z" stroke="white"/>
<path d="M97.3824 68.5L101.501 83.7055C101.494 84.5744 101.488 85.3891 101.481 86.1525C99.7812 88.9769 96.8051 88.6743 95.5295 88.17L92.5009 69.5087L97.3824 68.5Z" stroke="white"/>
<path d="M69.9951 198.584C70.8759 186.02 70.2069 179.171 72.5009 178.847L62.5448 160.583L53.8602 145.057C47.9944 142.561 46.767 139.941 43.952 137.5C42.7026 143.135 41.4429 140.565 40.8797 146.332C40.3813 151.386 39.9271 164.556 39.6848 169.631C39.3097 177.487 39.4424 185.337 40.7056 193.081C41.2161 196.216 42.6328 209.451 43.45 218.04C49.2451 218.08 55.9084 223.154 55.9084 223.154C55.9084 223.154 62.2646 224.479 66.3452 221.944C67.6745 216.877 68.6584 211.725 69.2578 206.526C69.5343 204.118 69.7903 201.447 69.9951 198.584Z" stroke="white"/>
<path d="M39.5009 176.5C47.1009 167.879 50.0009 150.842 50.5009 143.658C48.1157 142.219 45.3976 138.675 44.0009 137.5C43.8342 138.355 43.3009 140.784 42.5009 141.605C41.7009 142.426 41.1676 144.684 41.0009 145.711L39.5009 176.5Z" stroke="white"/>
<path d="M105.501 176.5C97.9009 167.879 95.0009 150.842 94.5009 143.658C96.8861 142.219 99.6042 138.675 101.001 137.5C101.168 138.355 101.701 140.784 102.501 141.605C103.301 142.426 103.834 144.684 104.001 145.711L105.501 176.5Z" stroke="white"/>
<path d="M64.3137 229.08L64.4349 228.708C65.196 226.323 65.886 223.915 66.5009 221.487C62.4774 224.076 56.2101 222.722 56.2101 222.722C56.2101 222.722 49.6401 217.541 43.926 217.5C44.3164 221.749 44.5679 224.886 44.5119 225.196C44.1462 227.257 43.3032 230.605 42.5009 233.884C44.8259 238.257 52.4435 243.42 64.3137 229.08Z" stroke="white"/>
<path d="M64.5009 228.5L64.3792 228.863M64.3792 228.863C63.9893 230.026 63.4179 234.209 62.8128 240.001C62.4267 243.695 62.0269 248.044 61.6517 252.681C60.9318 261.571 58.5592 276.227 56.8456 285.077C55.8317 290.348 55.1625 295.67 54.8076 301.033L54.6422 303.603M64.3792 228.863C52.4601 242.853 44.8112 237.817 42.4766 233.55C41.881 235.916 41.3078 238.244 40.9673 240.001C40.1663 244.133 40.5719 250.322 40.8963 261.601C41.2208 272.88 42.6606 281.619 43.1473 287.808C43.4162 291.243 43.1803 298.145 42.9171 303.603C44.2793 302.767 46.938 300.837 49.6516 301.033C51.9123 301.196 53.042 304.569 54.6422 303.603M54.6422 303.603L54.5846 304.5" stroke="white"/>
<path d="M54.3238 307.5C54.3604 305.243 54.4439 303.923 54.4439 303.923L54.5009 303.041C52.9204 303.99 51.8046 300.674 49.5718 300.514C46.8916 300.321 44.2656 302.22 42.9202 303.041C42.7782 305.972 42.5823 306.201 42.5009 307.5C47.1181 305.596 49.7067 305.682 54.3238 307.5Z" stroke="white"/>
<path d="M54.4127 316.814C54.5243 315.788 54.5649 313.834 54.3213 311.99C54.334 311.987 54.3044 308.94 54.3213 307.904C49.6415 306.075 47.0178 305.989 42.3379 307.904C42.2973 308.562 42.2219 311.482 42.0087 312.1C41.5418 313.455 40.8211 315.359 39.938 317.014C38.3748 319.954 34.7713 325.475 33.5634 326.651C32.3657 327.818 30.4269 330.658 32.2439 331.465C32.8833 331.744 33.2082 331.475 33.2082 331.475C32.9645 332.402 33.3807 333.379 33.9593 333.648C34.4262 333.867 35.015 333.808 35.015 333.808C35.0657 334.525 35.9184 335.881 37.7252 335.392C37.7252 335.392 38.1819 336.967 39.5827 337.037C40.0496 337.067 40.5064 337.047 40.9327 336.877C41.3286 336.718 41.7651 336.279 42.2422 335.183C42.2422 335.183 41.8869 336.588 43.6632 337.266C45.4396 337.944 47.5407 337.146 48.6269 334.914C49.713 332.681 49.5912 332.273 50.4946 330.329C51.398 328.386 50.9818 323.333 51.6416 321.279C52.3115 319.226 54.23 318.519 54.4127 316.814Z" stroke="white"/>
<path d="M42.8452 93.918C42.8228 93.9957 42.8003 94.0733 42.7777 94.1508M42.7777 94.1508C40.602 101.616 37.6406 108.555 37.3008 111.34C31.0088 112.024 28.1369 110.668 24.5009 104.31C24.8322 102.392 25.1908 100.042 25.5959 97.1111C27.242 85.1272 24.0608 87.0929 25.5959 72.6244C25.9713 69.0862 26.9314 66.2603 28.2417 63.9933C37.7632 60.4011 45.0484 64.1253 47.5009 66.4363L46.8036 68.9824L42.6836 84.0237C42.6905 84.8832 42.6971 85.6892 42.7034 86.4443C42.7339 90.1008 42.7584 92.5655 42.7777 94.1508Z" stroke="white"/>
<path d="M36.3381 123.5C37.7695 117.523 37.0995 114.696 37.5009 111.331C31.4717 111.995 28.7197 110.678 25.2356 104.5C24.2551 110.262 23.5244 112.043 22.5009 114.211C25.7619 114.123 26.5312 119.867 28.5444 121.076C30.8536 122.462 34.2871 119.565 36.3381 123.5Z" stroke="white"/>
<path d="M14.5009 157.391L14.6232 157.331M16.0397 154.35C16.2945 153.35 16.4881 152.34 16.7632 151.35C16.858 151.012 16.9513 150.641 17.0408 150.231C17.4814 148.218 17.8333 145.283 17.8333 140.873C17.8333 128.286 20.5032 117.432 21.9299 114.501C25.3639 114.411 26.1739 120.277 28.2939 121.512C30.7256 122.928 34.3412 119.969 36.5009 123.988C36.1186 125.537 35.5937 127.292 34.872 129.316C32.1002 137.08 27.8303 149.835 26.0571 155.143H26.1183C26.1183 155.143 25.2011 157.618 24.7527 159.5C20.943 158.499 18.9937 157.475 16.0397 154.35Z" stroke="white"/>
<path d="M16.0019 154.5C15.7534 155.516 15.6043 156.873 14.6898 157.527H14.6202L14.5009 157.587C14.7892 159.216 14.6898 160.916 15.4055 162.495C16.5983 165.12 20.495 164.747 22.5725 163.742C23.0695 163.5 23.5466 163.209 24.0039 162.877C24.1729 161.55 24.3518 160.393 24.5009 159.729C20.7848 158.713 18.8833 157.673 16.0019 154.5Z" stroke="white"/>
<path d="M40.671 54.5C38.0787 55.2958 34.9332 56.6065 32.1974 59.1143C30.8206 60.3764 29.5475 61.9416 28.5009 63.8972C37.8943 60.0701 45.0814 64.0378 47.5009 66.5C47.383 63.6199 45.8519 57.1878 40.671 54.5Z" stroke="white"/>
<path d="M100.466 54.0722C95.4244 52.9482 85.1211 48.8692 83.1227 47.4159C82.1385 46.6989 81.9879 43.0268 82.0783 39.5C78.5391 42.1189 75.6902 43.0338 72.4647 42.9977H71.4604C68.2349 43.0338 65.4627 42.1189 61.9236 39.5C62.0139 43.0268 61.8633 46.6989 60.8792 47.4159C58.8808 48.8692 48.5775 52.9482 43.5363 54.0722M100.466 54.0722L83.0624 54.4791L72.4647 58.5H71.4604L60.9394 54.4791L43.5363 54.0722M100.466 54.0722L100.501 54.08M43.5363 54.0722L43.5009 54.08" stroke="white"/>
<path d="M85.0197 30.7592C84.4653 33.4592 83.6588 36.5491 82.1165 38.889C78.5639 41.592 75.7042 42.5362 72.4664 42.4989H71.4584C68.2206 42.5362 65.4379 41.592 61.8853 38.889C60.343 36.5491 59.5366 33.4592 58.9821 30.7592C58.7402 31.0692 58.2362 31.6292 57.7725 31.6592C57.1475 31.7092 56.2201 29.7493 55.9379 28.6993C55.6455 27.6493 55.2625 24.0694 55.696 22.7294C56.1294 21.3895 57.1475 22.4394 57.4903 22.9694C57.6112 23.1594 57.8632 23.3394 58.1354 23.4894C58.0447 21.7195 57.9539 19.9495 57.6919 18.1996C57.1778 14.7396 57.4096 11.4097 58.5991 8.06981C61.099 1.02999 70.0975 0.529999 71.4584 0.5H72.4664C73.8273 0.529999 82.9028 1.02999 85.4027 8.06981C86.5922 11.4097 86.8241 14.7396 86.31 18.1996C86.0479 19.9495 85.9572 21.7195 85.8664 23.4894C86.1386 23.3394 86.3906 23.1594 86.5116 22.9694C86.8543 22.4394 87.8724 21.3895 88.3059 22.7294C88.7393 24.0694 88.3563 27.6493 88.064 28.6993C87.7817 29.7493 86.8543 31.7092 86.2293 31.6592C85.7656 31.6292 85.2616 31.0692 85.0197 30.7592Z" stroke="white"/>
<path d="M15.2905 158.5C12.475 159.61 9.34935 161.576 7.67538 163.499L7.50947 163.697L7.50851 163.698C4.67814 167.141 2.93277 168.413 1.53637 169.386L1.55449 169.406L1.0739 169.743C0.512802 170.136 0.380774 170.784 0.603794 171.215C0.808782 171.612 1.47154 172.087 3.04205 171.729C4.55855 171.384 5.85802 170.23 6.92494 169.106C7.42707 168.577 7.93031 167.997 8.30092 167.624C8.49331 167.431 8.68923 167.251 8.87973 167.128C9.02942 167.031 9.26759 166.907 9.53769 166.942L9.65498 166.968C9.86773 167.032 9.9973 167.185 10.0698 167.321C10.1396 167.451 10.1745 167.596 10.1938 167.724C10.2323 167.983 10.2255 168.304 10.1956 168.645C10.1352 169.339 9.9683 170.243 9.75891 171.188C9.4439 172.607 9.02255 174.157 8.6833 175.3L8.37816 176.285C8.03464 177.337 7.69715 178.501 7.38932 179.569C7.0835 180.631 6.80395 181.611 6.57975 182.275C6.36994 182.897 6.15321 183.779 6.10392 184.651C6.05389 185.538 6.18133 186.329 6.56735 186.858C6.74727 187.102 6.86858 187.111 6.92684 187.106C7.02586 187.097 7.21686 187.013 7.48086 186.706C7.93653 186.174 8.42789 185.189 8.86352 183.817L9.04661 183.205L9.45187 181.809C9.89351 180.321 10.4256 178.611 10.8879 177.145C11.1964 176.166 11.4745 175.294 11.6756 174.667C11.776 174.354 11.8568 174.101 11.913 173.927C11.941 173.84 11.9631 173.772 11.9778 173.727C11.9852 173.704 11.9912 173.686 11.995 173.674C11.9969 173.668 11.9978 173.664 11.9988 173.661C11.9993 173.659 12.0005 173.658 12.0008 173.658V173.657L12.9419 173.913V173.914L12.941 173.917C12.9404 173.92 12.9401 173.924 12.939 173.929C12.9369 173.939 12.9337 173.954 12.9295 173.974C12.9213 174.012 12.909 174.069 12.8932 174.143C12.8617 174.291 12.8155 174.505 12.7579 174.772C12.6425 175.306 12.4801 176.05 12.2925 176.892C11.9177 178.574 11.4404 180.653 11.0328 182.222C10.825 183.023 10.5362 183.875 10.2566 184.708C9.97435 185.548 9.70032 186.37 9.50622 187.137C9.31113 187.908 9.20791 188.587 9.24494 189.143C9.27678 189.622 9.40875 189.977 9.6502 190.235L9.75987 190.339C9.91343 190.468 10.0447 190.503 10.1575 190.5C10.2794 190.497 10.4323 190.447 10.6124 190.316C10.9358 190.081 11.2728 189.64 11.5488 189.057L11.6622 188.799H11.6632C12.132 187.668 12.6779 185.973 12.9438 185.102L13.1031 184.559C13.4017 183.282 13.9833 180.89 14.4895 178.82C14.7427 177.785 14.9771 176.828 15.1484 176.131C15.2341 175.783 15.3041 175.498 15.3525 175.302C15.3767 175.203 15.396 175.126 15.4088 175.074C15.4151 175.048 15.4198 175.028 15.423 175.015L15.4278 174.996V174.995L16.3814 175.208L16.3804 175.209C16.3803 175.21 16.3806 175.211 16.3804 175.212C16.3799 175.215 16.3787 175.22 16.3776 175.226C16.3754 175.237 16.3721 175.253 16.368 175.274C16.3596 175.319 16.3478 175.384 16.3318 175.467C16.2998 175.633 16.2533 175.874 16.1955 176.172C16.0799 176.766 15.9182 177.588 15.7367 178.498C15.465 179.861 15.1465 181.424 14.8653 182.712L14.5992 183.89V183.892C14.4091 184.686 14.0905 185.618 13.8373 186.452C13.5736 187.319 13.3824 188.072 13.3824 188.615C13.3824 188.978 13.5222 189.241 13.7086 189.387C13.8899 189.53 14.1714 189.608 14.5524 189.494C14.646 189.466 14.7914 189.371 14.9778 189.137C15.1588 188.911 15.3457 188.594 15.5298 188.198C15.8518 187.506 16.1446 186.627 16.39 185.69L16.492 185.286V185.285L16.7113 184.365C16.9409 183.373 17.1982 182.192 17.4531 181.028C17.7071 179.869 17.9589 178.725 18.175 177.812L18.3781 176.985L18.3791 176.981L18.4611 176.694C18.5479 176.41 18.6475 176.139 18.7376 175.955C18.7676 175.893 18.8059 175.823 18.8511 175.761C18.8732 175.73 18.9079 175.685 18.957 175.643C18.9976 175.608 19.1036 175.525 19.2631 175.514C19.4644 175.499 19.6185 175.603 19.7035 175.715C19.7725 175.805 19.7976 175.897 19.8075 175.942C19.8183 175.99 19.8241 176.04 19.8266 176.087V176.22C19.7997 176.871 19.5435 178.036 19.2745 179.184C18.9979 180.365 18.6984 181.564 18.5498 182.364C18.3615 183.384 18.2958 184.201 18.3743 184.756C18.4134 185.032 18.4821 185.2 18.5516 185.295C18.5948 185.354 18.6428 185.392 18.709 185.413L18.7825 185.429C19.0276 185.455 19.2057 185.434 19.3641 185.352C19.5073 185.277 19.6813 185.131 19.8762 184.825L19.9601 184.685L19.963 184.68L20.0631 184.49C20.2974 184.006 20.5447 183.218 20.7878 182.288C20.9243 181.766 21.0557 181.215 21.1797 180.673L21.5277 179.114C21.8767 177.538 22.2941 176.019 22.6673 174.566C23.0423 173.105 23.3761 171.703 23.5721 170.325C23.8273 168.479 24.1626 165.438 24.4885 162.961C24.4918 162.933 24.4975 162.906 24.5009 162.879C22.6716 163.591 20.703 163.897 18.6413 163.573L18.6404 163.574C17.853 163.452 17.2481 163.185 16.7895 162.782C16.3322 162.38 16.0574 161.875 15.8732 161.341C15.6914 160.815 15.5902 160.234 15.4974 159.671C15.4324 159.276 15.3704 158.886 15.2905 158.5Z" stroke="white"/>
<path d="M61.0009 97C65.8009 97 71.1676 102 73.0009 104.5C74.8343 102 78.2009 97 83.0009 97C89.0009 97 94.0009 103 96.5009 109.5C96.6676 107 97.9009 100.2 101.501 93V83.5L97.0009 66C97.1676 62.8333 98.5009 58 103.501 54.5L101.001 53.5L84.0009 54L73.5009 58H72.5009L62.0009 54L45.0009 53.5L41.5009 54.5C46.5009 57.5 47.8342 62.8333 48.0009 66L43.5009 83.5V93C47.1009 100.2 48.3342 107 48.5009 109.5C51.0009 103 55.0009 97 61.0009 97Z" stroke="white"/>
<ellipse cx="66.0009" cy="18" rx="2.5" ry="1.5" fill="white"/>
<ellipse cx="78.0009" cy="18" rx="2.5" ry="1.5" fill="white"/>
<path d="M108.663 123.5C107.232 117.523 107.903 114.696 107.501 111.331C113.53 111.995 116.282 110.678 119.766 104.5C120.746 110.262 121.477 112.043 122.501 114.211C119.24 114.123 118.47 119.867 116.457 121.076C114.148 122.462 110.715 119.565 108.663 123.5Z" stroke="white"/>
<path d="M128.044 154.368C128.285 155.397 128.43 156.772 129.318 157.435H129.385L129.501 157.496C129.221 159.147 129.318 160.869 128.623 162.468C127.465 165.128 123.682 164.751 121.666 163.732C121.183 163.487 120.72 163.192 120.276 162.855C120.112 161.51 119.939 160.339 119.794 159.666M128.044 154.368C127.803 153.339 127.619 152.299 127.359 151.28C127.269 150.933 127.18 150.551 127.095 150.129C126.679 148.057 126.346 145.038 126.346 140.5M128.044 154.368C125.247 157.582 123.401 158.636 119.794 159.666M119.794 159.666C119.369 157.73 118.501 155.183 118.501 155.183H118.559" stroke="white"/>
<path d="M127.794 151.35C128.063 152.34 128.252 153.35 128.501 154.35C125.613 157.475 123.708 158.499 119.985 159.5C119.546 157.618 118.65 155.143 118.65 155.143H118.71C116.976 149.835 112.803 137.08 110.094 129.316C109.388 127.292 108.875 125.537 108.501 123.988C110.613 119.969 114.147 122.928 116.523 121.512C118.595 120.278 119.387 114.411 122.744 114.501C124.138 117.432 126.748 128.286 126.748 140.873C126.748 145.283 127.091 148.218 127.522 150.231C127.609 150.641 127.701 151.012 127.794 151.35Z" stroke="white"/>
<path d="M130.095 158.5C133.028 159.61 136.284 161.576 138.028 163.499L138.201 163.697L138.202 163.698C141.15 167.141 142.968 168.413 144.423 169.386L144.403 169.406L144.904 169.743C145.489 170.136 145.626 170.784 145.394 171.215C145.18 171.612 144.49 172.087 142.854 171.729C141.275 171.384 139.921 170.23 138.809 169.106C138.286 168.577 137.763 167.997 137.376 167.624C137.176 167.431 136.971 167.251 136.773 167.128C136.617 167.031 136.369 166.907 136.088 166.942L135.965 166.968C135.745 167.032 135.609 167.185 135.534 167.321C135.461 167.451 135.424 167.596 135.405 167.724C135.364 167.983 135.371 168.304 135.403 168.645C135.466 169.339 135.639 170.243 135.857 171.188C136.186 172.607 136.624 174.157 136.977 175.3L137.296 176.285C137.654 177.337 138.005 178.501 138.326 179.569C138.644 180.631 138.935 181.611 139.169 182.275C139.388 182.897 139.614 183.779 139.665 184.651C139.716 185.538 139.584 186.329 139.181 186.858C138.994 187.102 138.868 187.111 138.807 187.106C138.704 187.097 138.505 187.013 138.23 186.706C137.755 186.174 137.244 185.189 136.79 183.817L136.599 183.205L136.177 181.809C135.717 180.321 135.163 178.611 134.682 177.145C134.36 176.166 134.07 175.294 133.861 174.667C133.756 174.354 133.672 174.101 133.614 173.927C133.584 173.84 133.562 173.772 133.546 173.727C133.538 173.704 133.532 173.686 133.528 173.674C133.526 173.668 133.525 173.664 133.524 173.661C133.524 173.659 133.522 173.658 133.522 173.658V173.657L132.542 173.913V173.914L132.543 173.917C132.544 173.92 132.544 173.924 132.545 173.929C132.547 173.939 132.551 173.954 132.555 173.974C132.563 174.012 132.576 174.069 132.592 174.143C132.625 174.291 132.674 174.505 132.734 174.772C132.854 175.306 133.023 176.05 133.218 176.892C133.609 178.574 134.106 180.653 134.53 182.222C134.747 183.023 135.048 183.875 135.339 184.708C135.633 185.548 135.918 186.37 136.121 187.137C136.324 187.908 136.431 188.587 136.392 189.143C136.36 189.622 136.223 189.977 135.97 190.235L135.856 190.339C135.697 190.468 135.559 190.503 135.442 190.5C135.315 190.497 135.156 190.447 134.968 190.316C134.632 190.081 134.28 189.64 133.993 189.057L133.875 188.799C133.387 187.668 132.817 185.973 132.54 185.102L132.374 184.559C132.063 183.282 131.457 180.89 130.929 178.82C130.666 177.785 130.422 176.828 130.243 176.131C130.154 175.783 130.081 175.498 130.03 175.302C130.006 175.203 129.986 175.126 129.972 175.074C129.965 175.048 129.961 175.028 129.957 175.015L129.952 174.996V174.995L128.959 175.208L128.96 175.209V175.212C128.96 175.215 128.962 175.22 128.963 175.226C128.965 175.237 128.968 175.253 128.973 175.274C128.982 175.319 128.994 175.384 129.01 175.467C129.044 175.633 129.093 175.874 129.153 176.172C129.274 176.766 129.441 177.588 129.631 178.498C129.913 179.861 130.245 181.424 130.538 182.712L130.816 183.89V183.892C131.014 184.686 131.345 185.618 131.609 186.452C131.884 187.319 132.083 188.072 132.083 188.615C132.083 188.978 131.937 189.241 131.743 189.387C131.554 189.53 131.261 189.608 130.864 189.494C130.767 189.466 130.615 189.371 130.421 189.137C130.233 188.911 130.037 188.594 129.846 188.198C129.511 187.506 129.205 186.627 128.95 185.69L128.843 185.286V185.285L128.616 184.365C128.377 183.373 128.108 182.192 127.843 181.028C127.578 179.869 127.316 178.725 127.091 177.812L126.879 176.985L126.878 176.981L126.793 176.694C126.702 176.41 126.599 176.139 126.505 175.955C126.473 175.893 126.434 175.823 126.386 175.761C126.364 175.73 126.327 175.685 126.276 175.643C126.233 175.608 126.124 175.525 125.958 175.514C125.747 175.499 125.587 175.603 125.498 175.715C125.427 175.805 125.4 175.897 125.39 175.942C125.379 175.99 125.373 176.04 125.37 176.087V176.22C125.398 176.871 125.665 178.036 125.946 179.184C126.233 180.365 126.546 181.564 126.7 182.364C126.897 183.384 126.965 184.201 126.883 184.756C126.843 185.032 126.77 185.2 126.698 185.295C126.653 185.354 126.604 185.392 126.534 185.413L126.458 185.429C126.203 185.455 126.017 185.434 125.852 185.352C125.702 185.277 125.521 185.131 125.319 184.825L125.232 184.685L125.229 184.68L125.124 184.49C124.88 184.006 124.622 183.218 124.369 182.288C124.227 181.766 124.09 181.215 123.961 180.673L123.598 179.114C123.235 177.538 122.8 176.019 122.411 174.566C122.02 173.105 121.673 171.703 121.468 170.325C121.203 168.479 120.854 165.438 120.514 162.961C120.511 162.933 120.505 162.906 120.501 162.879C122.407 163.591 124.458 163.897 126.605 163.573L126.606 163.574C127.427 163.452 128.056 163.185 128.534 162.782C129.01 162.38 129.297 161.875 129.488 161.341C129.677 160.815 129.783 160.234 129.88 159.671C129.948 159.276 130.012 158.886 130.095 158.5Z" stroke="white"/>
</svg>
